<svg xmlns="http://www.w3.org/2000/svg" viewBox="0 0 512 512">
  <path fill="#de0505" d="M119.1 209.1l-8-23.5c-3.3-9.6 3.8-19.9 14.1-20.5l68.8-1.3c3.2-.1 6.5.1 9.6.6l29.6 1.9c4.7.3 9.1 3.1 11.4 7.3l13 21.3c4.3 7.1 12.7 9.8 20.2 7l16.2-5.6c4.4-1.5 9-1.6 13.3-.5l34 10.2c4.8 1.4 9.4 4.6 12.2 9.3l11.8 19.2c4.3 7.1 12.7 9.8 20.2 7l16.2-5.6c4.4-1.5 9-1.6 13.3-.5l34 10.2c4.8 1.4 9.4 4.6 12.2 9.3l11.8 19.2c4.3 7.1 12.7 9.8 20.2 7l16.2-5.6c4.4-1.5 9-1.6 13.3-.5l34 10.2c4.8 1.4 9.4 4.6 12.2 9.3l11.8 19.2c4.3 7.1 12.7 9.8 20.2 7l16.2-5.6c4.4-1.5 9-1.6 13.3-.5l34 10.2c4.8 1.4 9.4 4.6 12.2 9.3l11.8 19.2c4.3 7.1 12.7 9.8 20.2 7l16.2-5.6c4.4-1.5 9-1.6 13.3-.5l34 10.2c4.8 1.4 9.4 4.6 12.2 9.3l11.8 19.2c4.3 7.1 12.7 9.8 20.2 7l16.2-5.6c4.4-1.5 9-1.6 13.3-.5l34 10.2c4.8 1.4 9.4 4.6 12.2 9.3l11.8 19.2c4.3 7.1 12.7 9.8 20.2 7l16.2-5.6c4.4-1.5 9-1.6 13.3-.5l34 10.2c4.8 1.4 9.4 4.6 12.2 9.3l11.8 19.2c4.3 7.1 12.7 9.8 20.2 7l16.2-5.6c4.4-1.5 9-1.6 13.3-.5l34 10.2c4.8 1.4 9.4 4.6 12.2 9.3l11.8 19.2c4.3 7.1 12.7 9.8 20.2 7l16.2-5.6c4.4-1.5 9-1.6 13.3-.5l34 10.2c4.8 1.4 9.4 4.6 12.2 9.3l11.8 19.2c4.3 7.1 12.7 9.8 20.2 7l16.2-5.6c4.4-1.5 9-1.6 13.3-.5l34 10.2c4.8 1.4 9.4 4.6 12.2 9.3l11.8 19.2c4.3 7.1 12.7 9.8 20.2 7l16.2-5.6c4.4-1.5 9-1.6 13.3-.5l34 10.2c4.8 1.4 9.4 4.6 12.2 9.3l11.8 19.2c4.3 7.1 12.7 9.8 20.2 7l16.2-5.6c4.4-1.5 9-1.6 13.3-.5l34 10.2c4.8 1.4 9.4 4.6 12.2 9.3l11.8 19.2c4.3 7.1 12.7 9.8 20.2 7l16.2-5.6c4.4-1.5 9-1.6 13.3-.5l34 10.2c4.8 1.4 9.4 4.6 12.2 9.3l11.8 19.2c4.3 7.1 12.7 9.8 20.2 7l16.2-5.6c4.4-1.5 9-1.6 13.3-.5l34 10.2c4.8 1.4 9.4 4.6 12.2 9.3l11.8 19.2c4.3 7.1 12.7 9.8 20.2 7l16.2-5.6c4.4-1.5 9-1.6 13.3-.5l34 10.2c4.8 1.4 9.4 4.6 12.2 9.3l11.8 19.2c4.3 7.1 12.7 9.8 20.2 7l16.2-5.6c4.4-1.5 9-1.6 13.3-.5l34 10.2c4.8 1.4 9.4 4.6 12.2 9.3l11.8 19.2c4.3 7.1 12.7 9.8 20.2 7l16.2-5.6c4.4-1.5 9-1.6 13.3-.5l34 10.2c4.8 1.4 9.4 4.6 12.2 9.3l11.8 19.2c4.3 7.1 12.7 9.8 20.2 7l16.2-5.6c4.4-1.5 9-1.6 13.3-.5l34 10.2c4.8 1.4 9.4 4.6 12.2 9.3l11.8 19.2c4.3 7.1 12.7 9.8 20.2 7l16.2-5.6c4.4-1.5 9-1.6 13.3-.5l34 10.2c4.8 1.4 9.4 4.6 12.2 9.3l11.8 19.2c4.3 7.1 12.7 9.8 20.2 7l16.2-5.6c4.4-1.5 9-1.6 13.3-.5l34 10.2">
  </path>
</svg>
